<svg xmlns="http://www.w3.org/2000/svg" viewBox="0 0 400 220" width="400" height="220" preserveAspectRatio="xMidYMid slice" role="img" aria-label="Class A multifamily apartment building">
  <defs>
    <linearGradient id="mfSky" x1="0" y1="0" x2="0" y2="1"><stop offset="0" stop-color="#bfe3ff"/><stop offset="1" stop-color="#eaf6ff"/></linearGradient>
    <linearGradient id="mfGlass" x1="0" y1="0" x2="1" y2="1"><stop offset="0" stop-color="#dff1ff"/><stop offset="1" stop-color="#a9cbe6"/></linearGradient>
    <linearGradient id="mfWall" x1="0" y1="0" x2="0" y2="1"><stop offset="0" stop-color="#f4ede2"/><stop offset="1" stop-color="#e3d7c3"/></linearGradient>
    <linearGradient id="mfWall2" x1="0" y1="0" x2="0" y2="1"><stop offset="0" stop-color="#c98a5a"/><stop offset="1" stop-color="#b0713f"/></linearGradient>
  </defs>
  <rect width="400" height="220" fill="url(#mfSky)"/>
  <ellipse cx="330" cy="42" rx="30" ry="30" fill="#fff6d6" opacity="0.8"/>
  <rect y="182" width="400" height="38" fill="#cfe0c3"/>
  <rect y="196" width="400" height="24" fill="#7f8a93"/>
  <rect x="36" y="70" width="120" height="118" fill="url(#mfWall)"/>
  <rect x="36" y="70" width="120" height="10" fill="#d8c8ac"/>
  <rect x="168" y="44" width="150" height="144" fill="url(#mfWall2)"/>
  <rect x="168" y="44" width="150" height="10" fill="#9c602f"/>
  <rect x="300" y="44" width="18" height="144" fill="url(#mfGlass)" opacity="0.9"/>
  <g fill="url(#mfGlass)">
    <rect x="48" y="92" width="24" height="18"/><rect x="82" y="92" width="24" height="18"/><rect x="116" y="92" width="28" height="18"/>
    <rect x="48" y="122" width="24" height="18"/><rect x="82" y="122" width="24" height="18"/><rect x="116" y="122" width="28" height="18"/>
    <rect x="48" y="152" width="24" height="18"/><rect x="82" y="152" width="24" height="18"/><rect x="116" y="152" width="28" height="18"/>
  </g>
  <g fill="none" stroke="#9aa7b0" stroke-width="2">
    <rect x="46" y="112" width="30" height="6"/><rect x="80" y="112" width="30" height="6"/>
    <rect x="46" y="142" width="30" height="6"/><rect x="80" y="142" width="30" height="6"/>
  </g>
  <g fill="url(#mfGlass)">
    <rect x="180" y="64" width="26" height="18"/><rect x="216" y="64" width="26" height="18"/><rect x="252" y="64" width="26" height="18"/>
    <rect x="180" y="92" width="26" height="18"/><rect x="216" y="92" width="26" height="18"/><rect x="252" y="92" width="26" height="18"/>
    <rect x="180" y="120" width="26" height="18"/><rect x="216" y="120" width="26" height="18"/><rect x="252" y="120" width="26" height="18"/>
    <rect x="180" y="148" width="26" height="18"/><rect x="216" y="148" width="26" height="18"/><rect x="252" y="148" width="26" height="18"/>
  </g>
  <g fill="none" stroke="#7d4f27" stroke-width="2" opacity="0.6">
    <line x1="178" y1="88" x2="288" y2="88"/><line x1="178" y1="116" x2="288" y2="116"/><line x1="178" y1="144" x2="288" y2="144"/>
  </g>
  <rect x="214" y="160" width="34" height="28" fill="#5f3a1c"/>
  <rect x="218" y="164" width="26" height="24" fill="#8fd0ee" opacity="0.8"/>
  <g>
    <rect x="20" y="168" width="5" height="16" fill="#6b4a2a"/><circle cx="22" cy="164" r="12" fill="#5a9e56"/>
    <rect x="340" y="166" width="6" height="18" fill="#6b4a2a"/><circle cx="343" cy="160" r="14" fill="#4f9350"/>
    <rect x="360" y="170" width="5" height="14" fill="#6b4a2a"/><circle cx="362" cy="166" r="11" fill="#5a9e56"/>
  </g>
</svg>
